PathFileType	4	(X/Y/Z)	D:\TRACE\v60_Jaco2_6-2-23\JustArmDRS_Motion3_2-v60.trc
DataRate	CameraRate	NumFrames	NumMarkers	Units	OrigDataRate	OrigDataStartFrame	OrigNumFrames
100.00	100.00	      24	9	mm	100.00	1	      7000
Frame#	Time	front left toe			Front right toe			aft left toe			aft right toe			Arm			FL body			FR body			AL Body			AR Body			
		X1	Y1	Z1	X2	Y2	Z2	X3	Y3	Z3	X4	Y4	Z4	X5	Y5	Z5	X6	Y6	Z6	X7	Y7	Z7	X8	Y8	Z8	X9	Y9	Z9	

1	0.000	-205.04678	63.39939	-206.41261	193.28078	52.30358	-142.50652	-292.97040	-48.05267	421.32214	115.10073	-51.30865	436.23578	-7.21854	1247.90710	-74.02095	-67.70325	645.44196	-298.39883	89.46780	644.22803	-277.70227	-181.63504	481.53024	624.88629	-30.71153	471.57098	642.73737	
2	0.010	-205.06308	63.39712	-206.40584	193.36369	52.36701	-142.44705	-293.04016	-48.01812	421.32373	115.22832	-51.28210	436.26880	-7.18665	1247.89136	-73.98669	-67.67809	645.41992	-298.42007	89.48916	644.23962	-277.69250	-181.64313	481.55020	624.88904	-30.70532	471.58279	642.75226	
3	0.020	-205.06076	63.39969	-206.40561	193.29518	52.39844	-142.45334	-293.04486	-48.00577	421.31583	115.21029	-51.28578	436.25134	-7.21646	1247.94055	-74.02419	-67.67693	645.43420	-298.41974	89.51073	644.21057	-277.68286	-181.59506	481.52417	624.87317	-30.74903	471.56427	642.74451	
4	0.030	-205.03564	63.39628	-206.39470	193.37529	52.38049	-142.42291	-293.09525	-47.97139	421.32278	115.13598	-51.32811	436.26071	-7.19520	1247.90479	-73.97751	-67.70415	645.40668	-298.41653	89.43745	644.08209	-277.46182	-181.67285	481.57324	624.88483	-30.73942	471.58478	642.75586	
5	0.040	-205.05013	63.38879	-206.42036	193.33034	52.35286	-142.47868	-293.01468	-48.02451	421.32272	115.12949	-51.30258	436.24060	-7.20937	1247.90491	-74.02030	-67.68733	645.43311	-298.38293	89.46948	644.04675	-277.46979	-181.63365	481.54587	624.85510	-30.72794	471.56180	642.76666	
6	0.050	-205.03662	63.37138	-206.40730	193.32016	52.30725	-142.45706	-292.99051	-48.06637	421.31503	114.98941	-51.34767	436.21298	-7.17754	1247.89893	-74.00948	-67.70861	645.43909	-298.40918	89.48482	644.23187	-277.71176	-181.60350	481.54529	624.89606	-30.75138	471.57791	642.75861	
7	0.060	-205.05885	63.38728	-206.41815	193.40137	52.36964	-142.44579	-292.96558	-48.01587	421.30035	115.05574	-51.30791	436.23090	-7.19913	1247.91589	-74.02702	-67.71304	645.42261	-298.40283	89.52480	644.20801	-277.70523	-181.59308	481.51154	624.85388	-30.70871	471.55402	642.73773	
8	0.070	-205.06194	63.39301	-206.43872	193.37492	52.35844	-142.45280	-293.04916	-47.96634	421.33810	115.18912	-51.27473	436.25604	-7.15896	1247.91577	-73.97336	-67.69439	645.42303	-298.38153	89.48392	644.22601	-277.68674	-181.63240	481.52597	624.89874	-30.71499	471.58301	642.74445	
9	0.080	-205.04834	63.39286	-206.39612	193.32529	52.31509	-142.46390	-293.02795	-48.02624	421.31052	115.07231	-51.38348	436.25958	-7.19485	1247.89551	-73.98331	-67.67038	645.43433	-298.40036	89.53613	644.19958	-277.69754	-181.63562	481.51181	624.86609	-30.71151	471.54565	642.75470	
10	0.090	-205.03905	63.37776	-206.42751	193.30109	52.33575	-142.44601	-293.03250	-48.01729	421.32474	115.11961	-51.29573	436.25659	-7.21539	1247.90503	-73.99765	-67.70779	645.45215	-298.42062	89.51584	644.20941	-277.68250	-181.66174	481.53119	624.90302	-30.72476	471.55011	642.77045	
11	0.100	-205.06235	63.38860	-206.41838	193.28473	52.27036	-142.51302	-293.06796	-48.00193	421.31207	115.09860	-51.34692	436.24411	-7.23490	1247.90747	-73.99219	-67.72318	645.41779	-298.41351	89.51520	644.21313	-277.66562	-181.64835	481.51410	624.89307	-30.72434	471.53265	642.74750	
12	0.110	-205.05986	63.40834	-206.43159	193.38174	52.36767	-142.42343	-293.09369	-47.95514	421.33777	115.09996	-51.28122	436.24377	-7.21036	1247.90491	-74.01955	-67.69609	645.39954	-298.41351	89.48593	644.22559	-277.68991	-181.65387	481.51642	624.86371	-30.71216	471.55640	642.75482	
13	0.120	-205.06993	63.42054	-206.42000	193.38577	52.32350	-142.47667	-293.05545	-48.01794	421.31848	115.11137	-51.29414	436.25912	-7.17045	1247.89758	-74.02199	-67.69237	645.42596	-298.41879	89.52164	644.21686	-277.66849	-181.63203	481.50943	624.86414	-30.72371	471.55173	642.72394	
14	0.130	-205.04637	63.38083	-206.40817	193.36400	52.34356	-142.44269	-293.08820	-47.98116	421.30624	115.11655	-51.29791	436.25943	-7.19958	1247.92175	-74.01353	-67.70942	645.43317	-298.41589	89.48238	644.24567	-277.69894	-181.61012	481.49551	624.88483	-30.69448	471.55078	642.76575	
15	0.140	-205.05609	63.39447	-206.41100	193.34045	52.32818	-142.45551	-293.02710	-48.02958	421.32697	114.99210	-51.41076	436.21997	-7.20396	1247.88574	-73.99725	-67.73004	645.41071	-298.40765	89.55450	644.20538	-277.67172	-181.62082	481.52405	624.88232	-30.75007	471.53983	642.75293	
16	0.150	-205.05266	63.38390	-206.41161	193.32581	52.31313	-142.45850	-293.02716	-47.96167	421.32370	114.97369	-51.34529	436.23914	-7.23788	1247.91052	-74.02257	-67.72278	645.39819	-298.45352	89.43067	644.05865	-277.46512	-181.61737	481.51373	624.90253	-30.76104	471.54874	642.76062	
17	0.160	-205.03976	63.38046	-206.42781	193.25287	52.32971	-142.53925	-293.04321	-47.99626	421.33914	115.11654	-51.30309	436.22894	-7.22323	1247.91614	-74.00684	-67.69421	645.41858	-298.41763	89.53053	644.21686	-277.67538	-181.61931	481.53784	624.87286	-30.74492	471.57831	642.73041	
18	0.170	-205.07703	63.40414	-206.42404	193.30983	52.39016	-142.51691	-293.00790	-48.02637	421.32684	115.18124	-51.21751	436.24756	-7.21378	1247.92944	-74.00889	-67.70087	645.43945	-298.39560	89.51929	644.19690	-277.70554	-181.63962	481.53748	624.88519	-30.74587	471.55960	642.75342	
19	0.180	-205.04688	63.39971	-206.40564	193.33598	52.37808	-142.48564	-293.06607	-48.01590	421.33224	115.22578	-51.21908	436.26453	-7.18357	1247.93713	-74.02377	-67.71360	645.46234	-298.38809	89.49786	644.20129	-277.67926	-181.59903	481.55164	624.86615	-30.74012	471.57925	642.76013	
20	0.190	-205.06773	63.41229	-206.42787	193.33748	52.34790	-142.46970	-292.98953	-48.01389	421.31949	115.17918	-51.21257	436.25516	-7.17392	1247.91248	-74.00173	-67.70138	645.41370	-298.38409	89.53055	644.20789	-277.67947	-181.55791	481.52875	624.87964	-30.71661	471.58197	642.75977	
21	0.200	-205.06544	63.40073	-206.41733	193.29579	52.30787	-142.51141	-293.03772	-47.98344	421.31989	115.04897	-51.32499	436.22620	-7.23795	1247.90271	-73.98987	-67.67458	645.39227	-298.41638	89.48892	644.20959	-277.68558	-181.64302	481.54691	624.87775	-30.75064	471.55627	642.76691	
22	0.210	-205.02274	63.38085	-206.40068	193.31516	52.37065	-142.50008	-293.14728	-47.95155	421.31802	115.16741	-51.26028	436.25064	-7.21083	1247.91211	-74.01252	-67.73219	645.42120	-298.41754	89.52767	644.21906	-277.70346	-181.61404	481.55423	624.88489	-30.73997	471.56186	642.76324	
23	0.220	-205.05428	63.40305	-206.42439	193.29565	52.34717	-142.50540	-293.09924	-47.96247	421.33630	115.13697	-51.29549	436.23062	-7.22637	1247.93909	-74.02416	-67.67188	645.41913	-298.38956	89.51620	644.19232	-277.67639	-181.61176	481.53610	624.85327	-30.73200	471.58072	642.75842	
24	0.230	-205.03856	63.42491	-206.43665	193.32832	52.33361	-142.49506	-293.02365	-48.02407	421.29810	115.02137	-51.33355	436.20877	-7.19972	1247.91638	-73.99361	-67.70509	645.43903	-298.43289	89.52058	644.20044	-277.67331	-181.55994	481.54398	624.84821	-30.74631	471.56073	642.74615	
